<?xml version="1.0" encoding="UTF-8"?>
<!DOCTYPE svg PUBLIC "-//W3C//DTD SVG 1.1//EN" "http://www.w3.org/Graphics/SVG/1.1/DTD/svg11.dtd">
<!-- Creator: CorelDRAW X7 -->
<svg xmlns="http://www.w3.org/2000/svg" xml:space="preserve" width="10.3162mm" height="10.3162mm" version="1.1" style="shape-rendering:geometricPrecision; text-rendering:geometricPrecision; image-rendering:optimizeQuality; fill-rule:evenodd; clip-rule:evenodd"
viewBox="0 0 51 51"
 xmlns:xlink="http://www.w3.org/1999/xlink">
 <defs>
  <style type="text/css">
   <![CDATA[
    .fil61 {fill:#FEFEFE}
    .fil0 {fill:#3E6EB4}
    .fil1 {fill:#396EB4}
    .fil2 {fill:#3B6CB2}
    .fil3 {fill:#3D6BB2}
    .fil4 {fill:#3A6BB1}
    .fil5 {fill:#3B69B0}
    .fil6 {fill:#3C68AF}
    .fil7 {fill:#3D66AE}
    .fil8 {fill:#3A66AE}
    .fil9 {fill:#3B64AC}
    .fil10 {fill:#3C63AB}
    .fil11 {fill:#3E62AA}
    .fil12 {fill:#3F61A9}
    .fil13 {fill:#3C60A9}
    .fil14 {fill:#3E5FA8}
    .fil15 {fill:#3A5EA8}
    .fil16 {fill:#3B5DA7}
    .fil17 {fill:#3D5CA5}
    .fil18 {fill:#3B5AA4}
    .fil19 {fill:#3C59A3}
    .fil20 {fill:#3959A3}
    .fil21 {fill:#3A57A2}
    .fil22 {fill:#3B56A1}
    .fil23 {fill:#39549F}
    .fil24 {fill:#3A539E}
    .fil25 {fill:#39519D}
    .fil26 {fill:#3A509C}
    .fil27 {fill:#384E9B}
    .fil28 {fill:#394D9A}
    .fil29 {fill:#3B4B99}
    .fil30 {fill:#384B99}
    .fil31 {fill:#394A98}
    .fil32 {fill:#3B4996}
    .fil33 {fill:#374896}
    .fil34 {fill:#394795}
    .fil35 {fill:#394694}
    .fil36 {fill:#374694}
    .fil37 {fill:#384493}
    .fil38 {fill:#394392}
    .fil39 {fill:#364392}
    .fil40 {fill:#374291}
    .fil41 {fill:#364190}
    .fil42 {fill:#343F8F}
    .fil43 {fill:#353E8F}
    .fil44 {fill:#363D8E}
    .fil45 {fill:#343D8E}
    .fil46 {fill:#353C8D}
    .fil47 {fill:#323C8D}
    .fil48 {fill:#333B8C}
    .fil49 {fill:#343A8A}
    .fil50 {fill:#343A8A}
    .fil51 {fill:#343988}
    .fil52 {fill:#343987}
    .fil53 {fill:#353887}
    .fil54 {fill:#353886}
    .fil55 {fill:#363785}
    .fil56 {fill:#363784}
    .fil57 {fill:#363784}
    .fil58 {fill:#363683}
    .fil59 {fill:#363682}
    .fil60 {fill:#363681}
   ]]>
  </style>
 </defs>
 <g id="Layer_x0020_1">
  <metadata id="CorelCorpID_0Corel-Layer"/>
  <g id="_2460737173872">
   <path class="fil0" d="M10 5l-5 5c1,-1 2,-2 2,-3 1,0 2,-1 3,-2z"/>
   <path class="fil0" d="M11 5l-6 6c0,0 0,-1 0,-1l5 -5c0,0 1,0 1,0z"/>
   <path class="fil0" d="M12 4l-8 8c0,-1 0,-1 1,-1l6 -6c0,-1 0,-1 1,-1z"/>
   <path class="fil0" d="M13 4l-9 9c0,-1 0,-1 0,-1l8 -8c0,0 0,0 1,0z"/>
   <path class="fil0" d="M13 3l-10 10c0,0 0,0 1,0l9 -9c0,-1 0,-1 0,-1z"/>
   <path class="fil1" d="M14 3l-11 11c0,0 0,-1 0,-1l10 -10c0,0 1,0 1,0z"/>
   <path class="fil1" d="M14 3l-11 11c0,0 0,0 0,0l11 -11c0,0 0,0 0,0z"/>
   <path class="fil1" d="M15 2l-13 13c0,0 0,0 1,-1l11 -11c1,-1 1,-1 1,-1z"/>
   <path class="fil1" d="M15 2l-13 13c0,0 0,0 0,0l13 -13c0,0 0,0 0,0z"/>
   <path class="fil2" d="M16 2l-14 14c0,0 0,0 0,-1l13 -13c1,0 1,0 1,0z"/>
   <path class="fil2" d="M16 2l-14 14c0,0 0,0 0,0l14 -14c0,0 0,0 0,0z"/>
   <path class="fil2" d="M17 2l-15 15c0,0 0,-1 0,-1l14 -14c0,0 1,0 1,0z"/>
   <path class="fil2" d="M17 1l-16 16c0,0 0,0 1,0l15 -15c0,-1 0,-1 0,-1z"/>
   <polygon class="fil2" points="18,1 1,18 1,17 17,1 "/>
   <polygon class="fil2" points="18,1 1,18 1,18 18,1 "/>
   <polygon class="fil2" points="18,1 1,18 1,18 18,1 "/>
   <path class="fil2" d="M19 1l-18 18 0 -1 17 -17c1,0 1,0 1,0z"/>
   <path class="fil2" d="M19 1l-18 18c0,0 0,0 0,0l18 -18c0,0 0,0 0,0z"/>
   <polygon class="fil2" points="20,1 1,20 1,19 19,1 "/>
   <polygon class="fil2" points="20,1 1,20 1,20 20,1 "/>
   <path class="fil2" d="M20 1l-19 19c0,0 0,0 0,0l19 -19c0,0 0,0 0,0z"/>
   <polygon class="fil2" points="21,0 0,21 1,20 20,1 "/>
   <polygon class="fil2" points="21,0 0,21 0,21 21,0 "/>
   <polygon class="fil2" points="21,0 0,21 0,21 21,0 "/>
   <polygon class="fil2" points="22,0 0,22 0,21 21,0 "/>
   <polygon class="fil3" points="22,0 0,22 0,22 22,0 "/>
   <polygon class="fil3" points="22,0 0,22 0,22 22,0 "/>
   <polygon class="fil3" points="23,0 0,23 0,22 22,0 "/>
   <polygon class="fil3" points="23,0 0,23 0,23 23,0 "/>
   <polygon class="fil4" points="23,0 0,23 0,23 23,0 "/>
   <polygon class="fil4" points="24,0 0,24 0,23 23,0 "/>
   <polygon class="fil4" points="24,0 0,24 0,24 24,0 "/>
   <polygon class="fil4" points="24,0 0,24 0,24 24,0 "/>
   <polygon class="fil5" points="24,0 0,24 0,24 24,0 "/>
   <polygon class="fil5" points="25,0 0,25 0,24 24,0 "/>
   <polygon class="fil5" points="25,0 0,25 0,25 25,0 "/>
   <polygon class="fil5" points="25,0 0,25 0,25 25,0 "/>
   <polygon class="fil5" points="26,0 0,26 0,25 0,25 25,0 25,0 "/>
   <polygon class="fil5" points="26,0 0,26 0,26 26,0 "/>
   <polygon class="fil5" points="26,0 0,26 0,26 26,0 "/>
   <polygon class="fil5" points="26,0 0,26 0,26 26,0 "/>
   <polygon class="fil5" points="27,0 0,27 0,26 26,0 "/>
   <polygon class="fil5" points="27,0 0,27 0,27 27,0 "/>
   <polygon class="fil5" points="27,0 0,27 0,27 27,0 "/>
   <polygon class="fil5" points="28,0 0,28 0,27 27,0 "/>
   <polygon class="fil6" points="28,0 0,28 0,28 28,0 "/>
   <polygon class="fil6" points="28,0 0,28 0,28 28,0 "/>
   <polygon class="fil6" points="28,0 0,28 0,28 28,0 "/>
   <polygon class="fil6" points="29,0 0,29 0,28 28,0 "/>
   <polygon class="fil6" points="29,0 0,29 0,29 29,0 "/>
   <polygon class="fil6" points="29,0 0,29 0,29 29,0 "/>
   <polygon class="fil6" points="29,0 0,29 0,29 29,0 "/>
   <polygon class="fil6" points="30,0 0,30 0,29 29,0 "/>
   <polygon class="fil7" points="30,0 0,30 0,30 30,0 "/>
   <polygon class="fil7" points="30,0 0,30 0,30 30,0 "/>
   <polygon class="fil7" points="30,0 0,30 0,30 30,0 "/>
   <polygon class="fil7" points="30,0 0,30 0,30 30,0 "/>
   <polygon class="fil8" points="31,1 1,31 0,30 30,0 "/>
   <polygon class="fil8" points="31,1 1,31 1,31 31,1 "/>
   <polygon class="fil8" points="31,1 1,31 1,31 31,1 "/>
   <polygon class="fil8" points="31,1 1,31 1,31 31,1 "/>
   <polygon class="fil9" points="32,1 1,32 1,31 31,1 "/>
   <polygon class="fil9" points="32,1 1,32 1,32 32,1 "/>
   <polygon class="fil9" points="32,1 1,32 1,32 32,1 "/>
   <polygon class="fil9" points="32,1 1,32 1,32 32,1 "/>
   <polygon class="fil9" points="33,1 1,33 1,32 32,1 "/>
   <polygon class="fil9" points="33,1 1,33 1,33 33,1 "/>
   <polygon class="fil9" points="33,1 1,33 1,33 33,1 "/>
   <polygon class="fil9" points="33,1 1,33 1,33 33,1 "/>
   <polygon class="fil9" points="33,1 1,33 1,33 33,1 "/>
   <polygon class="fil10" points="34,1 1,34 1,33 33,1 "/>
   <polygon class="fil10" points="34,1 1,34 1,34 34,1 "/>
   <polygon class="fil10" points="34,1 1,34 1,34 34,1 "/>
   <polygon class="fil10" points="34,2 2,34 1,34 34,1 "/>
   <polygon class="fil10" points="34,2 2,34 2,34 34,2 "/>
   <polygon class="fil10" points="35,2 2,35 2,34 34,2 "/>
   <polygon class="fil10" points="35,2 2,35 2,35 35,2 "/>
   <path class="fil10" d="M35 2l-10 9c-1,1 -1,2 -2,3l-21 21 0 0 33 -33 0 0z"/>
   <path class="fil11" d="M35 2l-9 9c0,0 0,0 -1,0l10 -9 0 0zm-12 12l-21 21 0 0 21 -21c0,0 0,0 0,0z"/>
   <path class="fil11" d="M35 2l-8 9c-1,0 -1,0 -1,0l9 -9 0 0zm-13 13l-20 20 0 0 21 -21c0,1 0,1 -1,1z"/>
   <path class="fil11" d="M36 2l-9 9c0,0 0,0 0,0l8 -9 1 0zm-14 13l-20 21 0 -1 20 -20c0,0 0,0 0,0z"/>
   <path class="fil11" d="M36 2l-8 8c-1,1 -1,1 -1,1l9 -9 0 0zm-14 14l-20 20 0 0 20 -21c0,1 0,1 0,1z"/>
   <path class="fil12" d="M36 2l-8 8c0,0 0,0 0,0l8 -8 0 0zm-14 14l-20 20 0 0 20 -20c0,0 0,0 0,0z"/>
   <path class="fil12" d="M36 2l-8 8c0,0 0,0 0,0l8 -8 0 0zm-14 15l-20 19 0 0 20 -20c0,0 0,1 0,1z"/>
   <path class="fil12" d="M36 2l-7 8c0,0 -1,0 -1,0l8 -8 0 0zm-14 15l-20 19 0 0 20 -19c0,0 0,0 0,0z"/>
   <path class="fil12" d="M37 3l-8 7c0,0 0,0 0,0l7 -8 1 1zm-15 14l-19 20 -1 -1 20 -19c0,0 0,0 0,0z"/>
   <path class="fil13" d="M37 3l-8 7c0,0 0,0 0,0l8 -7 0 0zm-15 15l-19 19 0 0 19 -20c0,1 0,1 0,1z"/>
   <path class="fil13" d="M37 3l-7 7 -1 0 8 -7 0 0zm-15 15l-19 19 0 0 19 -19c0,0 0,0 0,0z"/>
   <path class="fil13" d="M37 3l-7 7 0 0 7 -7 0 0zm-15 15l-19 19 0 0 19 -19c0,0 0,0 0,0z"/>
   <path class="fil13" d="M37 3l-7 7 0 0 7 -7 0 0zm-15 16l-19 18 0 0 19 -19 0 1z"/>
   <path class="fil13" d="M38 3l-7 7 -1 0 7 -7 1 0zm-16 16l-7 6 0 0 0 1 -12 12 0 -1 19 -18 0 0z"/>
   <path class="fil13" d="M38 3l-7 7 0 0 7 -7 0 0zm-16 16l-7 6 0 0 7 -6 0 0zm-7 7l-12 12 0 0 12 -12 0 0z"/>
   <path class="fil14" d="M38 3l-7 7 0 0 0 0 7 -7 0 0zm-16 17l-6 5 -1 0 7 -6 0 1zm-7 6l-12 12 0 0 12 -12 0 0z"/>
   <path class="fil14" d="M38 3l-7 7 0 0 7 -7 0 0zm-16 17l-6 5 0 0 6 -5 0 0 0 0zm-7 6l-12 12 0 0 12 -12 0 0z"/>
   <path class="fil15" d="M38 3l-6 7 -1 0 7 -7 0 0zm-16 17l-6 5 0 0 6 -5 0 0zm-7 7l-12 11 0 0 12 -12 0 1z"/>
   <path class="fil15" d="M38 4l-6 6 0 0 6 -7 0 1zm-16 16l-6 5 0 0 6 -5 0 0zm-7 7l-11 11 -1 0 12 -11 0 0z"/>
   <path class="fil15" d="M39 4l-7 6 0 0 6 -6 1 0zm-17 17l-5 4 -1 0 6 -5 0 1zm-7 6l-11 12 0 -1 11 -11 0 0z"/>
   <path class="fil15" d="M39 4l-6 6 -1 0 7 -6 0 0zm-17 17l-5 4 0 0 5 -4 0 0zm-7 6l-11 12 0 0 11 -12 0 0z"/>
   <path class="fil15" d="M39 4l-6 6 0 0 6 -6 0 0zm-17 17l-5 4 0 0 5 -4 0 0zm-7 7l-11 11 0 0 11 -12 0 1z"/>
   <path class="fil15" d="M39 4l-6 6 0 0 6 -6 0 0zm-17 18l-4 3 -1 0 5 -4 0 1zm-7 6l-11 11 0 0 11 -11 0 0z"/>
   <path class="fil16" d="M39 4l-6 6 0 0 6 -6 0 0zm-17 18l-4 3 0 0 4 -3 0 0zm-7 6l-11 11 0 0 11 -11 0 0z"/>
   <path class="fil16" d="M39 4l-5 6 -1 0 6 -6 0 0zm-17 18l-4 3 0 0 4 -3 0 0zm-7 7l-11 10 0 0 11 -11 0 1z"/>
   <path class="fil16" d="M40 4l-6 6 0 0 5 -6 1 0zm-18 18l-4 3 0 0 4 -3 0 0zm-7 7l-11 11 0 -1 11 -10 0 0z"/>
   <path class="fil16" d="M40 4l-6 6 0 0 6 -6 0 0zm-18 19l-3 2 -1 0 4 -3 0 1zm-7 6l-11 11 0 0 11 -11 0 0z"/>
   <path class="fil17" d="M40 5l-6 5 0 0 6 -6 0 1zm-18 18l-3 2 0 0 3 -2 0 0zm-7 6l-10 11 -1 0 11 -11 0 0z"/>
   <path class="fil17" d="M40 5l-5 5 -1 0 6 -5 0 0zm-18 18l-3 2 0 0 3 -2 0 0zm-7 7l-10 10 0 0 10 -11 0 1z"/>
   <path class="fil17" d="M40 5l-5 5 0 0 5 -5 0 0zm-18 19l-2 1 -1 0 3 -2 0 1zm-7 6l-10 10 0 0 10 -10 0 0z"/>
   <path class="fil17" d="M40 5l-5 5 0 0 5 -5 0 0zm-18 19l-2 1 0 0 2 -1 0 0zm-7 6l-10 10 0 0 10 -10 0 0z"/>
   <path class="fil17" d="M41 5l-6 5 0 0 5 -5 1 0zm-19 19l-2 1 0 0 2 -1 0 0zm-7 7l-10 10 0 -1 10 -10 0 1z"/>
   <path class="fil17" d="M41 5l-5 5 -1 0 6 -5 0 0zm-19 19l-2 1 0 0 2 -1 0 0zm-7 7l-10 10 0 0 10 -10 0 0z"/>
   <path class="fil17" d="M41 5l-5 5 0 0 5 -5 0 0zm-19 20l-1 0 -1 0 2 -1 0 1zm-7 6l-10 10 0 0 10 -10 0 0z"/>
   <path class="fil17" d="M41 5l-5 5 0 0 5 -5 0 0zm-19 20l-1 0 0 0 1 0 0 0zm-7 6l-10 10 0 0 10 -10 0 0z"/>
   <path class="fil17" d="M41 5l-5 5 0 0 5 -5 0 0zm-19 20l-1 0 0 0 1 0 0 0zm-7 7l-10 9 0 0 10 -10 0 1z"/>
   <path class="fil17" d="M41 6l-4 4 -1 0 5 -5 0 1zm-26 26l-9 9 -1 0 10 -9 0 0zm6 -7l1 0 0 0 -1 0z"/>
   <path class="fil18" d="M42 6l-5 4 0 0 0 0 4 -4 1 0zm-27 26l-9 10 0 -1 9 -9 0 0z"/>
   <path class="fil18" d="M42 6l-5 5 0 -1 5 -4 0 0zm-27 27l-9 9 0 0 9 -10 0 1z"/>
   <path class="fil18" d="M42 6l-5 5 0 0 5 -5 0 0zm-27 27l-9 9 0 0 9 -9 0 0z"/>
   <path class="fil18" d="M42 6l-5 5 0 0 5 -5 0 0zm-27 27l-9 9 0 0 9 -9 0 0 0 0z"/>
   <path class="fil19" d="M42 6l-5 6 0 -1 5 -5 0 0zm-11 11l-1 1c0,0 1,0 1,-1zm-15 16l-10 9 0 0 9 -9 1 0z"/>
   <path class="fil19" d="M42 6l-5 6 0 0 5 -6 0 0zm-10 11l-2 2c0,0 0,0 0,-1l1 -1c0,0 0,0 1,0zm-16 16l-10 9 0 0 10 -9 0 0z"/>
   <path class="fil19" d="M42 7l-5 5 0 0 5 -6 0 1zm-10 10l-2 2c0,0 0,0 0,0l2 -2c0,0 0,0 0,0zm-16 16l-9 9 -1 0 10 -9 0 0z"/>
   <path class="fil19" d="M43 7l-6 5 0 0 5 -5 1 0zm-11 10l-2 3c0,0 0,-1 0,-1l2 -2c0,0 0,0 0,0zm-16 16l-9 10 0 -1 9 -9 0 0z"/>
   <path class="fil20" d="M43 7l-6 6 0 -1 6 -5 0 0zm-10 10l-3 3c0,0 0,0 0,0l2 -3c1,0 1,0 1,0zm-16 16l-10 10 0 0 9 -10 1 0z"/>
   <path class="fil20" d="M43 7l-6 6 0 0 6 -6 0 0zm-10 10l-4 3c0,0 0,0 1,0l3 -3c0,0 0,0 0,0zm-16 16l-10 10 0 0 10 -10 0 0z"/>
   <path class="fil20" d="M43 7l-6 6 0 0 6 -6 0 0zm-10 10l-4 4c0,0 0,-1 0,-1l4 -3c0,0 0,0 0,0zm-16 16l-10 10 0 0 10 -10 0 0z"/>
   <path class="fil20" d="M43 7l-6 7 0 -1 6 -6 0 0zm-9 10l-5 4 0 0 0 0 4 -4 1 0 0 0zm-16 16l-11 10 0 0 10 -10 1 0z"/>
   <path class="fil21" d="M43 7l-6 7 0 0 6 -7 0 0zm-9 10l-5 4 0 0 5 -4 0 0zm-16 16l-11 10 0 0 11 -10 0 0z"/>
   <path class="fil21" d="M44 7l-7 7 0 0 6 -7 1 0zm-10 10l-5 5 0 -1 5 -4 0 0zm-16 16l-11 11 0 -1 11 -10 0 0z"/>
   <path class="fil21" d="M44 8l-7 6 0 0 7 -7 0 1zm-9 9l-6 5 0 0 5 -5 1 0zm-17 16l-10 11 -1 0 11 -11 0 0z"/>
   <path class="fil21" d="M44 8l-7 7 0 -1 7 -6 0 0zm-9 9l-6 5 0 0 6 -5 0 0zm-16 16l-11 11 0 0 10 -11 1 0z"/>
   <path class="fil21" d="M44 8l-7 7 0 0 7 -7 0 0zm-9 9l-6 5 0 0 6 -5 0 0zm-16 16l-11 11 0 0 11 -11 0 0z"/>
   <path class="fil22" d="M44 8l-7 7 0 0 7 -7 0 0zm-9 9l-6 6 0 -1 6 -5 0 0zm-16 16l-11 11 0 0 11 -11 0 0z"/>
   <path class="fil22" d="M44 8l-7 8 0 -1 7 -7 0 0zm-8 9l-7 6 0 0 6 -6 1 0zm-16 16l-12 11 0 0 11 -11 1 0z"/>
   <path class="fil22" d="M44 8l-7 8 0 0 7 -8 0 0zm-8 9l-7 6 0 0 7 -6 0 0zm-16 16l-12 11 0 0 12 -11 0 0z"/>
   <path class="fil22" d="M44 8l-7 8 0 0 7 -8 0 0zm-8 9l-7 6 0 0 7 -6 0 0zm-16 16l-12 11 0 0 12 -11 0 0z"/>
   <path class="fil22" d="M45 9l-8 7 0 0 7 -8 1 1zm-9 8l-7 7 0 -1 7 -6 0 0zm-16 16l-11 12 -1 -1 12 -11 0 0z"/>
   <path class="fil22" d="M45 9l-8 8 0 -1 8 -7 0 0zm-8 8l-8 7 0 0 7 -7 1 0zm-16 16l-12 12 0 0 11 -12 1 0z"/>
   <path class="fil22" d="M45 9l-16 15 0 0 8 -7 0 0 0 0 8 -8 0 0zm-24 24l-12 12 0 0 12 -12 0 0z"/>
   <path class="fil22" d="M45 9l-16 16 0 -1 16 -15 0 0zm-24 24l-12 12 0 0 12 -12 0 0z"/>
   <path class="fil23" d="M45 9l-16 16 0 0 16 -16 0 0zm-24 24l-12 12 0 0 12 -12 0 0z"/>
   <path class="fil23" d="M45 9l-16 16 0 0 16 -16 0 0zm-23 24l-13 12 0 0 12 -12 1 0 0 0z"/>
   <path class="fil23" d="M45 10l-16 15 0 0 16 -16 0 1zm-23 23l-12 12 -1 0 13 -12 0 0z"/>
   <path class="fil23" d="M45 10l-15 15 -1 0 0 0 16 -15 0 0zm-23 24l-12 11 0 0 12 -12 0 1z"/>
   <path class="fil24" d="M46 10l-16 15 0 0 15 -15 1 0zm-24 24l-12 12 0 -1 12 -11 0 0z"/>
   <path class="fil24" d="M46 10l-16 15 0 0 16 -15 0 0zm-24 24l-12 12 0 0 12 -12 0 0z"/>
   <path class="fil24" d="M46 10l-15 15 -1 0 16 -15 0 0zm-24 25l-12 11 0 0 12 -12 0 1z"/>
   <path class="fil24" d="M46 10l-15 15 0 0 15 -15 0 0zm-24 25l-12 11 0 0 12 -11 0 0z"/>
   <path class="fil24" d="M46 11l-15 14 0 0 15 -15 0 1zm-24 24l-11 11 -1 0 12 -11 0 0z"/>
   <path class="fil24" d="M46 11l-15 14 0 0 15 -14 0 0zm-24 24l-11 11 0 0 11 -11 0 0z"/>
   <path class="fil24" d="M46 11l-14 14 -1 0 15 -14 0 0zm-24 25l-11 10 0 0 11 -11 0 1z"/>
   <path class="fil24" d="M46 11l-14 14 0 0 14 -14 0 0zm-24 25l-11 10 0 0 11 -10 0 0z"/>
   <path class="fil25" d="M47 11l-15 14 0 0 14 -14 1 0zm-25 25l-11 11 0 -1 11 -10 0 0z"/>
   <path class="fil25" d="M47 11l-14 14 -1 0 15 -14 0 0zm-25 26l-11 10 0 0 11 -11 0 1z"/>
   <path class="fil25" d="M47 11l-14 14 0 0 14 -14 0 0zm-25 26l-11 10 0 0 11 -10 0 0z"/>
   <path class="fil25" d="M47 12l-14 13 0 0 14 -14 0 1zm-25 25l-10 10 -1 0 11 -10 0 0z"/>
   <path class="fil26" d="M47 12l-14 13 0 0 14 -13 0 0zm-25 25l-10 10 0 0 10 -10 0 0z"/>
   <path class="fil26" d="M47 12l-13 13 -1 0 14 -13 0 0zm-25 26l-10 9 0 0 10 -10 0 1z"/>
   <path class="fil26" d="M47 12l-13 13 0 0 13 -13 0 0zm-25 26l-10 9 0 0 10 -9 0 0z"/>
   <path class="fil26" d="M47 12l-13 13 0 0 13 -13 0 0zm-25 26l-10 9 0 0 10 -9 0 0z"/>
   <path class="fil26" d="M47 13l-13 12 0 0 13 -13 0 1zm-25 25l-9 9 -1 0 10 -9 0 0z"/>
   <path class="fil26" d="M48 13l-13 12 -1 0 13 -12 1 0zm-26 26l-9 9 0 -1 9 -9 0 1z"/>
   <path class="fil26" d="M48 13l-13 12 0 0 13 -12 0 0zm-26 26l-9 9 0 0 9 -9 0 0z"/>
   <path class="fil26" d="M48 13l-13 12 0 0 13 -12 0 0zm-26 26l-9 9 0 0 9 -9 0 0z"/>
   <path class="fil27" d="M48 13l-12 12 -1 0 13 -12 0 0zm-26 27l-9 8 0 0 9 -9 0 1z"/>
   <path class="fil27" d="M48 13l-12 12 0 0 12 -12 0 0zm-26 27l-9 8 0 0 9 -8 0 0z"/>
   <path class="fil27" d="M48 14l-12 11 0 0 12 -12 0 1zm-26 26l-8 8 -1 0 9 -8 0 0z"/>
   <path class="fil27" d="M48 14l-12 11 0 0 12 -11 0 0zm-26 26l-8 8 0 0 8 -8 0 0z"/>
   <path class="fil27" d="M48 14l-12 12 1 -1 -1 0 12 -11 0 0zm-26 27l-8 7 0 0 8 -8 0 1z"/>
   <path class="fil27" d="M48 14l-12 12 0 0 12 -12 0 0zm-18 19l-1 0 0 0 1 0zm-8 8l-8 7 0 0 8 -7 0 0z"/>
   <path class="fil28" d="M48 14l-12 12 0 0 12 -12 0 0zm-18 19l-1 0 0 0 1 0 0 0zm-8 8l-8 7 0 0 8 -7 0 0z"/>
   <path class="fil28" d="M49 15l-13 12 0 -1 12 -12 1 1zm-19 18l-1 1 0 -1 1 0 0 0zm-8 9l-7 7 -1 -1 8 -7 0 1z"/>
   <path class="fil28" d="M49 15l-13 12 0 0 13 -12 0 0zm-18 18l-2 1 0 0 1 -1 1 0zm-9 9l-7 7 0 0 7 -7 0 0z"/>
   <path class="fil28" d="M49 15l-13 12 0 0 13 -12 0 0zm-18 18l-2 1 0 0 2 -1 0 0zm-9 9l-7 7 0 0 7 -7 0 0z"/>
   <path class="fil29" d="M49 15l-13 13 0 -1 13 -12 0 0zm-18 18l-2 1 0 0 2 -1 0 0zm-9 9l-7 7 0 0 7 -7 0 0z"/>
   <path class="fil29" d="M49 15l-13 13 0 0 13 -13 0 0zm-18 18l-2 2 0 -1 2 -1 0 0zm-9 10l-7 6 0 0 7 -7 0 1z"/>
   <path class="fil30" d="M49 16l-13 12 0 0 13 -13 0 1zm-17 17l-3 2 0 0 2 -2 1 0zm-10 10l-6 6 -1 0 7 -6 0 0z"/>
   <path class="fil30" d="M49 16l-13 13 0 -1 13 -12 0 0zm-17 17l-3 2 0 0 3 -2 0 0zm-10 10l-6 6 0 0 6 -6 0 0z"/>
   <path class="fil30" d="M49 16l-13 13 0 0 13 -13 0 0zm-17 17l-3 3 0 -1 3 -2 0 0zm-10 11l-6 5 0 0 6 -6 0 1z"/>
   <path class="fil30" d="M49 16l-13 13 0 0 13 -13 0 0zm-17 17l-3 3 0 0 3 -3 0 0zm-10 11l-6 5 0 0 6 -5 0 0z"/>
   <path class="fil31" d="M49 16l-13 14 0 -1 13 -13 0 0zm-16 17l-4 3 0 0 3 -3 1 0zm-11 11l-6 5 0 0 6 -5 0 0z"/>
   <path class="fil31" d="M49 17l-13 13 0 0 13 -14 0 1zm-16 16l-4 3 0 0 4 -3 0 0zm-11 11l-5 5 -1 0 6 -5 0 0z"/>
   <path class="fil31" d="M49 17l-13 13 0 0 13 -13 0 0zm-16 16l-4 4 0 -1 4 -3 0 0zm-11 12l-5 4 0 0 5 -5 0 1z"/>
   <path class="fil32" d="M50 17l-14 14 0 -1 13 -13 1 0zm-16 16l-5 4 0 0 4 -4 1 0zm-12 12l-5 5 0 -1 5 -4 0 0z"/>
   <path class="fil32" d="M50 17l-14 14 0 0 14 -14 0 0zm-16 16l-5 4 0 0 5 -4 0 0zm-12 12l-5 5 0 0 5 -5 0 0z"/>
   <path class="fil32" d="M50 17l-14 14 0 0 14 -14 0 0zm-16 16l-5 5 0 -1 5 -4 0 0zm-12 13l-5 4 0 0 5 -5 0 1z"/>
   <path class="fil32" d="M50 18l-14 14 0 -1 14 -14 0 1zm-16 15l-5 5 0 0 5 -5 0 0zm-12 13l-4 4 -1 0 5 -4 0 0z"/>
   <path class="fil32" d="M50 18l-14 14 0 0 14 -14 0 0zm-15 15l-6 5 0 0 5 -5 1 0zm-13 13l-4 4 0 0 4 -4 0 0z"/>
   <path class="fil33" d="M50 18l-15 14 1 0 14 -14 0 0zm-15 15l-6 5 0 0 6 -5 0 0zm-13 13l-4 4 0 0 4 -4 0 0z"/>
   <path class="fil33" d="M50 18l-15 15 0 -1 15 -14 0 0zm-15 15l-6 6 0 -1 6 -5 0 0zm-13 14l-4 3 0 0 4 -4 0 1z"/>
   <path class="fil34" d="M50 18l-21 21 0 0 6 -6 0 0 0 0 15 -15 0 0zm-28 29l-4 3 0 0 4 -3 0 0z"/>
   <path class="fil34" d="M50 19l-21 20 0 0 21 -21 0 1zm-28 28l-3 3 -1 0 4 -3 0 0z"/>
   <path class="fil35" d="M50 19l-21 21 0 -1 21 -20 0 0zm-28 28l-3 3 0 0 3 -3 0 0z"/>
   <path class="fil35" d="M50 19l-21 21 0 0 21 -21 0 0zm-28 29l-3 2 0 0 3 -3 0 1z"/>
   <path class="fil35" d="M50 19l-21 21 0 0 21 -21 0 0zm-28 29l-3 2 0 0 3 -2 0 0z"/>
   <path class="fil35" d="M50 20l-21 20 0 0 21 -21 0 1zm-28 28l-2 2 -1 0 3 -2 0 0z"/>
   <path class="fil35" d="M50 20l-21 21 0 -1 21 -20 0 0zm-28 29l-2 1 0 0 2 -2 0 1z"/>
   <path class="fil36" d="M50 20l-21 21 0 0 21 -21 0 0zm-28 29l-2 1 0 0 2 -1 0 0z"/>
   <path class="fil36" d="M50 20l-21 21 0 0 21 -21 0 0zm-28 29l-2 1 0 0 2 -1 0 0z"/>
   <path class="fil36" d="M50 20l-21 21 0 0 21 -21 0 0zm-28 29l-2 1 0 0 2 -1 0 0z"/>
   <path class="fil36" d="M51 21l-22 21 0 -1 21 -21 1 1zm-29 29l-1 1 -1 -1 2 -1 0 1z"/>
   <path class="fil37" d="M51 21l-22 21 0 0 22 -21 0 0zm-29 29l-1 1 0 0 1 -1 0 0z"/>
   <path class="fil37" d="M51 21l-22 21 0 0 22 -21 0 0zm-29 29l-1 1 0 0 1 -1 0 0z"/>
   <path class="fil37" d="M51 21l-22 22 0 -1 22 -21 0 0zm-29 30l-1 0 0 0 1 -1 0 1z"/>
   <path class="fil37" d="M51 22l-22 21 0 0 22 -22 0 1zm-30 29l1 0 0 0 -1 0z"/>
   <polygon class="fil38" points="51,22 29,43 29,43 51,22 "/>
   <polygon class="fil38" points="51,22 29,43 29,43 51,22 "/>
   <polygon class="fil38" points="51,22 29,44 29,43 51,22 "/>
   <polygon class="fil38" points="51,23 29,44 29,44 51,22 "/>
   <polygon class="fil39" points="51,23 29,44 29,44 51,23 "/>
   <polygon class="fil40" points="51,23 29,45 29,44 51,23 "/>
   <polygon class="fil40" points="51,23 29,45 29,45 51,23 "/>
   <polygon class="fil40" points="51,24 29,45 29,45 51,23 "/>
   <polygon class="fil40" points="51,24 29,45 29,45 51,24 "/>
   <polygon class="fil41" points="51,24 29,46 29,45 51,24 "/>
   <polygon class="fil41" points="51,25 29,46 29,46 51,24 "/>
   <polygon class="fil41" points="51,25 29,46 29,46 51,25 "/>
   <polygon class="fil42" points="51,25 29,47 29,46 51,25 "/>
   <polygon class="fil42" points="51,25 29,47 29,47 51,25 "/>
   <polygon class="fil42" points="51,26 29,47 29,47 51,25 51,25 "/>
   <polygon class="fil42" points="51,26 29,47 29,47 51,26 "/>
   <polygon class="fil43" points="51,26 29,48 29,47 51,26 "/>
   <polygon class="fil43" points="51,26 29,48 29,48 51,26 "/>
   <polygon class="fil43" points="51,27 29,48 29,48 51,26 "/>
   <polygon class="fil44" points="51,27 29,49 29,48 51,27 "/>
   <polygon class="fil45" points="51,27 29,49 29,49 51,27 "/>
   <polygon class="fil45" points="51,28 29,49 29,49 51,27 "/>
   <polygon class="fil45" points="51,28 29,49 29,49 51,28 "/>
   <polygon class="fil46" points="51,28 29,50 29,49 51,28 "/>
   <polygon class="fil47" points="51,29 29,50 29,50 51,28 "/>
   <polygon class="fil47" points="51,29 29,50 29,50 51,29 "/>
   <polygon class="fil47" points="51,29 29,51 29,50 51,29 "/>
   <polygon class="fil47" points="51,30 30,51 29,51 29,51 51,29 "/>
   <path class="fil48" d="M51 30l-21 21 0 0 21 -21c0,0 0,0 0,0z"/>
   <polygon class="fil48" points="51,30 30,51 30,51 51,30 "/>
   <polygon class="fil48" points="50,31 31,50 30,51 51,30 "/>
   <polygon class="fil48" points="50,31 31,50 31,50 50,31 "/>
   <polygon class="fil49" points="50,31 31,50 31,50 50,31 "/>
   <polygon class="fil49" points="50,32 32,50 31,50 50,31 "/>
   <path class="fil50" d="M50 32l-18 18c0,0 0,0 0,0l18 -18 0 0z"/>
   <polygon class="fil50" points="50,33 33,50 32,50 50,32 "/>
   <path class="fil51" d="M50 33l-17 17c0,0 0,0 0,0l17 -17 0 0z"/>
   <path class="fil51" d="M50 33l-17 17 0 0 17 -17c0,0 0,0 0,0z"/>
   <polygon class="fil52" points="50,34 34,50 33,50 50,33 "/>
   <polygon class="fil52" points="49,34 34,49 34,50 50,34 "/>
   <path class="fil53" d="M49 35l-14 14 -1 0 15 -15c0,0 0,0 0,1z"/>
   <path class="fil54" d="M49 35l-14 14c0,0 0,0 0,0l14 -14c0,0 0,0 0,0z"/>
   <path class="fil54" d="M49 36l-13 13c-1,0 -1,0 -1,0l14 -14c0,0 0,0 0,1z"/>
   <path class="fil55" d="M49 36l-13 13c0,0 0,0 0,0l13 -13c0,0 0,0 0,0z"/>
   <path class="fil56" d="M48 37l-11 11c-1,0 -1,1 -1,1l13 -13c0,0 -1,0 -1,1z"/>
   <path class="fil56" d="M48 37l-11 11c0,0 0,0 0,0l11 -11c0,0 0,0 0,0z"/>
   <path class="fil57" d="M48 38l-10 10c0,0 -1,0 -1,0l11 -11c0,0 0,1 0,1z"/>
   <path class="fil57" d="M47 38l-9 9c0,1 0,1 0,1l10 -10c0,0 0,0 -1,0z"/>
   <path class="fil58" d="M47 39l-8 8c0,0 0,0 -1,0l9 -9c0,1 0,1 0,1z"/>
   <path class="fil59" d="M46 40l-6 6c0,1 -1,1 -1,1l8 -8c0,0 0,1 -1,1z"/>
   <path class="fil59" d="M46 41l-5 5c0,0 -1,0 -1,0l6 -6c0,0 0,1 0,1z"/>
   <path class="fil60" d="M41 46l5 -5c-2,2 -3,3 -5,5z"/>
   <path class="fil61" d="M35 33l2 -8 -8 0 0 -4c0,-2 1,-4 5,-4l3 0 0 -7c0,0 -3,0 -6,0 -6,0 -9,3 -9,10l0 5 -7 0 0 8 7 0 0 18c1,0 2,0 3,0 2,0 3,0 4,0l0 -18 6 0z"/>
  </g>
 </g>
</svg>
