<?xml version="1.0" encoding="UTF-8"?>
<!DOCTYPE svg PUBLIC "-//W3C//DTD SVG 1.1//EN" "http://www.w3.org/Graphics/SVG/1.1/DTD/svg11.dtd">
<!-- Creator: CorelDRAW X7 -->
<svg xmlns="http://www.w3.org/2000/svg" xml:space="preserve" width="10.316mm" height="10.3161mm" version="1.1" style="shape-rendering:geometricPrecision; text-rendering:geometricPrecision; image-rendering:optimizeQuality; fill-rule:evenodd; clip-rule:evenodd"
viewBox="0 0 71 71"
 xmlns:xlink="http://www.w3.org/1999/xlink">
 <defs>
  <style type="text/css">
   <![CDATA[
    .fil68 {fill:#FEFEFE}
    .fil1 {fill:#00B0DE}
    .fil0 {fill:#00B0DC}
    .fil6 {fill:#00AFE4}
    .fil5 {fill:#00AFE2}
    .fil4 {fill:#00AFE1}
    .fil3 {fill:#00AFDF}
    .fil2 {fill:#00AFDE}
    .fil11 {fill:#00AFEA}
    .fil10 {fill:#00AEE8}
    .fil9 {fill:#00AEE7}
    .fil8 {fill:#00AEE5}
    .fil7 {fill:#00AEE4}
    .fil17 {fill:#00ABE6}
    .fil18 {fill:#00A9E5}
    .fil19 {fill:#00A9E5}
    .fil20 {fill:#00A7E4}
    .fil21 {fill:#00A7E3}
    .fil22 {fill:#00A5E2}
    .fil23 {fill:#00A4E1}
    .fil24 {fill:#00A3E0}
    .fil25 {fill:#00A2DF}
    .fil26 {fill:#00A1DF}
    .fil27 {fill:#00A0DE}
    .fil28 {fill:#009FDD}
    .fil29 {fill:#009EDC}
    .fil30 {fill:#009DDB}
    .fil31 {fill:#009CDA}
    .fil32 {fill:#009BD9}
    .fil33 {fill:#009AD8}
    .fil34 {fill:#0098D7}
    .fil35 {fill:#0097D6}
    .fil36 {fill:#0096D5}
    .fil37 {fill:#0095D5}
    .fil38 {fill:#0094D3}
    .fil39 {fill:#0093D3}
    .fil40 {fill:#0091D2}
    .fil41 {fill:#0091D1}
    .fil42 {fill:#008FD0}
    .fil43 {fill:#018ECE}
    .fil44 {fill:#058DCE}
    .fil45 {fill:#0A8BCC}
    .fil46 {fill:#0E8ACC}
    .fil47 {fill:#1089CA}
    .fil48 {fill:#1088CA}
    .fil52 {fill:#1484C6}
    .fil53 {fill:#1683C5}
    .fil54 {fill:#1982C4}
    .fil12 {fill:#00AEEA}
    .fil13 {fill:#00ADE9}
    .fil14 {fill:#00ACE8}
    .fil15 {fill:#00ABE7}
    .fil16 {fill:#00AAE6}
    .fil49 {fill:#0C86C8}
    .fil50 {fill:#0C85C7}
    .fil51 {fill:#0E84C6}
    .fil55 {fill:#1381C4}
    .fil56 {fill:#1780C3}
    .fil57 {fill:#197FC2}
    .fil58 {fill:#1D7DC1}
    .fil59 {fill:#1F7CC0}
    .fil60 {fill:#217ABE}
    .fil61 {fill:#2379BE}
    .fil62 {fill:#2578BC}
    .fil63 {fill:#2877BB}
    .fil64 {fill:#2B75BA}
    .fil65 {fill:#2475BA}
    .fil66 {fill:#2873B9}
    .fil67 {fill:#2A72B8}
   ]]>
  </style>
 </defs>
 <g id="Layer_x0020_1">
  <metadata id="CorelCorpID_0Corel-Layer"/>
  <path class="fil0" d="M64 14l-6 -6c2,1 4,3 6,6z"/>
  <path class="fil0" d="M65 15l-9 -9c1,1 1,1 2,2l6 6c0,0 1,1 1,1z"/>
  <path class="fil0" d="M66 17l-11 -11c0,0 1,0 1,0l9 9c0,1 1,1 1,2z"/>
  <path class="fil0" d="M67 18l-13 -13c0,0 1,0 1,1l11 11c0,0 0,0 1,1z"/>
  <path class="fil0" d="M67 18l-14 -14c0,1 1,1 1,1l13 13c0,0 0,0 0,0z"/>
  <path class="fil0" d="M67 19l-15 -15c0,0 1,0 1,0l14 14c0,1 0,1 0,1z"/>
  <path class="fil0" d="M68 20l-17 -16c1,0 1,0 1,0l15 15c1,1 1,1 1,1z"/>
  <path class="fil1" d="M68 21l-17 -18c0,0 0,0 0,1l17 16c0,0 0,1 0,1z"/>
  <path class="fil1" d="M69 22l-19 -19c0,0 0,0 1,0l17 18c0,0 0,0 1,1z"/>
  <path class="fil2" d="M69 22l-20 -19c0,0 1,0 1,0l19 19c0,0 0,0 0,0z"/>
  <path class="fil2" d="M69 23l-20 -21c0,0 0,1 0,1l20 19c0,0 0,1 0,1z"/>
  <path class="fil2" d="M69 24l-21 -22c0,0 0,0 1,0l20 21c0,0 0,0 0,1z"/>
  <path class="fil2" d="M70 24l-23 -22c1,0 1,0 1,0l21 22 1 0z"/>
  <path class="fil3" d="M70 25l-23 -23c0,0 0,0 0,0l23 22c0,0 0,1 0,1z"/>
  <polygon class="fil3" points="70,25 46,2 47,2 70,25 "/>
  <polygon class="fil3" points="70,26 46,1 46,2 70,25 "/>
  <polygon class="fil3" points="70,26 45,1 46,1 70,26 "/>
  <path class="fil3" d="M70 27l-25 -26c0,0 0,0 0,0l25 25c0,1 0,1 0,1z"/>
  <polygon class="fil3" points="71,27 44,1 45,1 70,27 "/>
  <polygon class="fil3" points="71,28 43,1 44,1 71,27 "/>
  <path class="fil3" d="M71 28l-28 -27c0,0 0,0 0,0l28 27c0,0 0,0 0,0z"/>
  <polygon class="fil4" points="71,29 43,1 43,1 71,28 "/>
  <polygon class="fil4" points="71,29 42,1 43,1 71,29 "/>
  <polygon class="fil4" points="71,30 42,0 42,1 71,29 "/>
  <polygon class="fil4" points="71,30 41,0 42,0 71,30 "/>
  <polygon class="fil5" points="71,31 41,0 41,0 71,30 "/>
  <polygon class="fil5" points="71,31 40,0 41,0 71,31 "/>
  <polygon class="fil5" points="71,32 40,0 40,0 71,31 "/>
  <polygon class="fil5" points="71,32 39,0 40,0 71,32 "/>
  <polygon class="fil5" points="71,33 39,0 39,0 71,32 "/>
  <polygon class="fil5" points="71,33 38,0 39,0 71,33 "/>
  <polygon class="fil6" points="71,34 38,0 38,0 71,33 "/>
  <polygon class="fil6" points="71,34 38,0 38,0 71,34 "/>
  <polygon class="fil7" points="71,34 37,0 38,0 71,34 "/>
  <polygon class="fil7" points="71,35 37,0 37,0 71,34 "/>
  <polygon class="fil7" points="71,35 36,0 37,0 71,35 "/>
  <polygon class="fil7" points="71,36 36,0 36,0 71,35 "/>
  <polygon class="fil8" points="71,36 36,0 36,0 36,0 71,36 71,36 "/>
  <polygon class="fil8" points="71,36 35,0 36,0 71,36 "/>
  <polygon class="fil8" points="71,37 35,0 35,0 71,36 "/>
  <polygon class="fil8" points="71,37 34,0 35,0 71,37 "/>
  <polygon class="fil8" points="71,37 34,0 34,0 71,37 "/>
  <polygon class="fil8" points="71,38 34,0 34,0 71,37 "/>
  <polygon class="fil9" points="71,38 33,0 34,0 71,38 "/>
  <polygon class="fil9" points="71,39 33,0 33,0 71,38 "/>
  <polygon class="fil9" points="71,39 33,0 33,0 71,39 "/>
  <polygon class="fil9" points="71,39 32,0 33,0 71,39 "/>
  <polygon class="fil9" points="71,40 32,0 32,0 71,39 "/>
  <polygon class="fil9" points="71,40 31,0 32,0 71,40 "/>
  <polygon class="fil9" points="71,40 31,0 31,0 71,40 "/>
  <polygon class="fil9" points="71,41 31,0 31,0 71,40 "/>
  <polygon class="fil9" points="71,41 30,0 31,0 71,41 "/>
  <polygon class="fil9" points="71,41 30,0 30,0 71,41 "/>
  <polygon class="fil10" points="71,42 30,1 30,0 71,41 "/>
  <polygon class="fil10" points="71,42 29,1 30,1 71,42 "/>
  <polygon class="fil10" points="71,42 29,1 29,1 71,42 "/>
  <polygon class="fil10" points="71,43 29,1 29,1 71,42 "/>
  <polygon class="fil11" points="71,43 28,1 29,1 71,43 "/>
  <polygon class="fil11" points="71,43 28,1 28,1 71,43 "/>
  <polygon class="fil11" points="71,44 28,1 28,1 71,43 "/>
  <polygon class="fil11" points="71,44 27,1 28,1 71,44 "/>
  <polygon class="fil12" points="70,44 27,1 27,1 71,44 "/>
  <polygon class="fil12" points="70,45 27,1 27,1 70,44 "/>
  <polygon class="fil13" points="70,45 26,1 27,1 70,45 "/>
  <polygon class="fil13" points="70,45 26,1 26,1 70,45 "/>
  <polygon class="fil13" points="70,46 26,1 26,1 70,45 "/>
  <polygon class="fil14" points="70,46 26,1 26,1 70,46 "/>
  <polygon class="fil14" points="70,46 25,2 26,1 70,46 "/>
  <polygon class="fil14" points="70,47 25,2 25,2 70,46 "/>
  <polygon class="fil14" points="70,47 25,2 25,2 70,47 "/>
  <polygon class="fil14" points="70,47 24,2 25,2 70,47 "/>
  <polygon class="fil15" points="70,47 24,2 24,2 70,47 "/>
  <polygon class="fil15" points="69,48 24,2 24,2 70,47 "/>
  <polygon class="fil16" points="69,48 23,2 24,2 69,48 "/>
  <polygon class="fil17" points="69,48 23,2 23,2 69,48 "/>
  <polygon class="fil18" points="69,49 23,2 23,2 69,48 "/>
  <polygon class="fil18" points="69,49 23,2 23,2 69,49 "/>
  <polygon class="fil18" points="69,49 22,3 23,2 69,49 "/>
  <polygon class="fil19" points="69,49 22,3 22,3 69,49 "/>
  <polygon class="fil19" points="69,50 22,3 22,3 69,49 "/>
  <polygon class="fil20" points="69,50 22,3 22,3 69,50 "/>
  <polygon class="fil20" points="68,50 21,3 22,3 69,50 "/>
  <polygon class="fil20" points="68,51 21,3 21,3 68,50 "/>
  <polygon class="fil20" points="68,51 21,3 21,3 68,51 "/>
  <polygon class="fil21" points="68,51 20,3 21,3 68,51 "/>
  <polygon class="fil21" points="68,51 20,4 20,3 68,51 "/>
  <polygon class="fil21" points="68,52 20,4 20,4 68,51 "/>
  <polygon class="fil22" points="68,52 20,4 20,4 68,52 "/>
  <polygon class="fil22" points="68,52 19,4 20,4 68,52 "/>
  <polygon class="fil22" points="67,52 19,4 19,4 68,52 "/>
  <polygon class="fil23" points="67,53 19,4 19,4 67,52 "/>
  <polygon class="fil23" points="67,53 19,4 19,4 67,53 "/>
  <polygon class="fil23" points="67,53 18,5 19,4 67,53 "/>
  <polygon class="fil24" points="67,53 18,5 18,5 67,53 "/>
  <polygon class="fil24" points="67,54 18,5 18,5 67,53 "/>
  <polygon class="fil24" points="67,54 18,5 18,5 67,54 "/>
  <polygon class="fil25" points="66,54 17,5 18,5 67,54 "/>
  <polygon class="fil25" points="66,54 17,5 17,5 66,54 "/>
  <polygon class="fil26" points="66,55 17,5 17,5 66,54 "/>
  <polygon class="fil26" points="66,55 17,6 17,5 66,55 "/>
  <polygon class="fil26" points="66,55 16,6 17,6 66,55 "/>
  <polygon class="fil26" points="66,55 16,6 16,6 66,55 "/>
  <polygon class="fil27" points="65,56 16,6 16,6 66,55 "/>
  <polygon class="fil27" points="65,56 16,6 16,6 65,56 "/>
  <polygon class="fil27" points="65,56 15,6 16,6 65,56 "/>
  <polygon class="fil28" points="65,56 15,6 15,6 65,56 "/>
  <polygon class="fil28" points="65,57 15,7 15,6 65,56 "/>
  <polygon class="fil28" points="65,57 15,7 15,7 65,57 "/>
  <polygon class="fil29" points="64,57 15,7 15,7 65,57 "/>
  <polygon class="fil29" points="64,57 14,7 15,7 64,57 "/>
  <polygon class="fil29" points="64,57 14,7 14,7 64,57 "/>
  <polygon class="fil29" points="64,58 14,8 14,7 64,57 "/>
  <polygon class="fil30" points="64,58 14,8 14,8 64,58 "/>
  <polygon class="fil30" points="64,58 13,8 14,8 64,58 "/>
  <polygon class="fil31" points="63,58 13,8 13,8 64,58 "/>
  <polygon class="fil31" points="63,59 13,8 13,8 63,58 "/>
  <polygon class="fil31" points="63,59 13,8 13,8 63,59 "/>
  <polygon class="fil32" points="63,59 13,9 13,8 63,59 "/>
  <polygon class="fil32" points="63,59 12,9 13,9 63,59 "/>
  <polygon class="fil32" points="63,59 12,9 12,9 63,59 "/>
  <polygon class="fil33" points="62,60 12,9 12,9 63,59 "/>
  <polygon class="fil33" points="62,60 12,9 12,9 62,60 "/>
  <polygon class="fil33" points="62,60 11,10 12,9 62,60 "/>
  <polygon class="fil34" points="62,60 11,10 11,10 62,60 "/>
  <polygon class="fil34" points="62,60 11,10 11,10 62,60 "/>
  <polygon class="fil35" points="61,61 11,10 11,10 62,60 "/>
  <polygon class="fil35" points="61,61 11,10 11,10 61,61 "/>
  <polygon class="fil35" points="61,61 10,10 11,10 61,61 "/>
  <polygon class="fil35" points="61,61 10,11 10,10 61,61 "/>
  <polygon class="fil35" points="61,61 10,11 10,11 61,61 "/>
  <polygon class="fil35" points="60,62 10,11 10,11 61,61 "/>
  <polygon class="fil36" points="60,62 10,11 10,11 60,62 "/>
  <polygon class="fil36" points="60,62 10,11 10,11 60,62 "/>
  <polygon class="fil37" points="60,62 9,12 10,11 60,62 "/>
  <polygon class="fil37" points="60,62 9,12 9,12 60,62 "/>
  <polygon class="fil37" points="59,63 9,12 9,12 60,62 "/>
  <polygon class="fil37" points="59,63 9,12 9,12 59,63 "/>
  <polygon class="fil37" points="59,63 9,13 9,12 59,63 "/>
  <polygon class="fil37" points="59,63 8,13 9,13 59,63 "/>
  <polygon class="fil38" points="59,63 8,13 8,13 59,63 "/>
  <polygon class="fil38" points="58,63 8,13 8,13 59,63 "/>
  <polygon class="fil38" points="58,64 8,13 8,13 58,63 "/>
  <polygon class="fil38" points="58,64 8,14 8,13 58,64 "/>
  <polygon class="fil39" points="58,64 8,14 8,14 58,64 "/>
  <polygon class="fil39" points="57,64 7,14 8,14 58,64 "/>
  <polygon class="fil40" points="57,64 7,14 7,14 57,64 "/>
  <polygon class="fil40" points="57,64 7,15 7,14 57,64 "/>
  <polygon class="fil40" points="57,65 7,15 7,15 57,64 "/>
  <polygon class="fil40" points="57,65 7,15 7,15 57,65 "/>
  <polygon class="fil40" points="56,65 7,15 7,15 57,65 "/>
  <polygon class="fil40" points="56,65 6,15 7,15 56,65 "/>
  <polygon class="fil41" points="56,65 6,16 6,15 56,65 "/>
  <polygon class="fil41" points="56,65 6,16 6,16 56,65 "/>
  <polygon class="fil41" points="55,66 6,16 6,16 56,65 "/>
  <polygon class="fil42" points="55,66 6,16 6,16 55,66 "/>
  <polygon class="fil42" points="55,66 6,17 6,16 55,66 "/>
  <polygon class="fil42" points="55,66 5,17 6,17 55,66 "/>
  <polygon class="fil43" points="54,66 5,17 5,17 55,66 "/>
  <polygon class="fil43" points="54,66 5,17 5,17 54,66 "/>
  <polygon class="fil44" points="54,67 5,18 5,17 54,66 "/>
  <polygon class="fil44" points="54,67 5,18 5,18 54,67 "/>
  <polygon class="fil44" points="53,67 5,18 5,18 54,67 "/>
  <polygon class="fil44" points="53,67 5,18 5,18 53,67 "/>
  <polygon class="fil44" points="53,67 4,19 5,18 53,67 "/>
  <polygon class="fil45" points="53,67 4,19 4,19 53,67 "/>
  <polygon class="fil45" points="52,67 4,19 4,19 53,67 "/>
  <polygon class="fil45" points="52,68 4,19 4,19 52,67 "/>
  <polygon class="fil46" points="52,68 4,20 4,19 52,68 "/>
  <polygon class="fil46" points="52,68 4,20 4,20 52,68 "/>
  <polygon class="fil46" points="51,68 4,20 4,20 52,68 "/>
  <polygon class="fil46" points="51,68 3,20 4,20 51,68 "/>
  <polygon class="fil47" points="51,68 3,21 3,20 51,68 "/>
  <polygon class="fil47" points="51,68 3,21 3,21 51,68 "/>
  <polygon class="fil47" points="50,68 3,21 3,21 51,68 "/>
  <polygon class="fil47" points="50,69 3,22 3,21 50,68 "/>
  <polygon class="fil48" points="50,69 3,22 3,22 50,69 "/>
  <polygon class="fil48" points="49,69 3,22 3,22 50,69 "/>
  <polygon class="fil48" points="49,69 3,22 3,22 49,69 "/>
  <polygon class="fil48" points="49,69 2,23 3,22 49,69 "/>
  <polygon class="fil49" points="49,69 2,23 2,23 49,69 "/>
  <polygon class="fil49" points="48,69 2,23 2,23 49,69 "/>
  <polygon class="fil49" points="48,69 2,23 2,23 48,69 "/>
  <polygon class="fil49" points="48,69 2,24 2,23 48,69 "/>
  <polygon class="fil49" points="47,70 2,24 2,24 48,69 "/>
  <polygon class="fil49" points="47,70 2,24 2,24 47,70 "/>
  <polygon class="fil50" points="47,70 2,25 2,24 47,70 "/>
  <polygon class="fil50" points="47,70 2,25 2,25 47,70 "/>
  <polygon class="fil51" points="46,70 2,25 2,25 47,70 "/>
  <polygon class="fil51" points="46,70 1,26 2,25 46,70 "/>
  <polygon class="fil51" points="46,70 1,26 1,26 46,70 "/>
  <polygon class="fil51" points="45,70 1,26 1,26 46,70 "/>
  <polygon class="fil52" points="45,70 1,26 1,26 45,70 "/>
  <polygon class="fil52" points="45,70 1,27 1,26 45,70 "/>
  <polygon class="fil52" points="44,70 1,27 1,27 45,70 "/>
  <polygon class="fil53" points="44,71 1,27 1,27 44,70 "/>
  <polygon class="fil53" points="44,71 1,28 1,27 44,71 "/>
  <polygon class="fil53" points="43,71 1,28 1,28 44,71 "/>
  <polygon class="fil54" points="43,71 1,28 1,28 43,71 "/>
  <polygon class="fil54" points="43,71 1,29 1,28 43,71 "/>
  <polygon class="fil54" points="42,71 1,29 1,29 43,71 "/>
  <polygon class="fil55" points="42,71 1,29 1,29 42,71 "/>
  <polygon class="fil55" points="42,71 1,30 1,29 42,71 "/>
  <polygon class="fil56" points="41,71 0,30 1,30 42,71 "/>
  <polygon class="fil56" points="41,71 0,30 0,30 41,71 "/>
  <polygon class="fil56" points="41,71 0,31 0,30 41,71 "/>
  <polygon class="fil56" points="40,71 0,31 0,31 41,71 "/>
  <polygon class="fil57" points="40,71 0,31 0,31 40,71 "/>
  <polygon class="fil57" points="40,71 0,32 0,31 40,71 "/>
  <polygon class="fil57" points="39,71 0,32 0,32 40,71 "/>
  <polygon class="fil57" points="39,71 0,33 0,32 39,71 "/>
  <polygon class="fil57" points="39,71 0,33 0,33 39,71 "/>
  <polygon class="fil57" points="38,71 0,33 0,33 39,71 "/>
  <polygon class="fil58" points="38,71 0,34 0,33 38,71 "/>
  <polygon class="fil58" points="37,71 0,34 0,34 38,71 "/>
  <polygon class="fil58" points="37,71 0,34 0,34 37,71 "/>
  <polygon class="fil58" points="37,71 0,35 0,34 37,71 "/>
  <polygon class="fil59" points="36,71 0,35 0,35 37,71 "/>
  <polygon class="fil59" points="36,71 0,36 0,35 36,71 "/>
  <polygon class="fil59" points="36,71 0,36 0,36 0,36 36,71 36,71 "/>
  <polygon class="fil59" points="35,71 0,36 0,36 36,71 "/>
  <polygon class="fil59" points="35,71 0,37 0,36 35,71 "/>
  <polygon class="fil60" points="34,71 0,37 0,37 35,71 "/>
  <polygon class="fil60" points="34,71 0,38 0,37 34,71 "/>
  <polygon class="fil60" points="34,71 0,38 0,38 34,71 "/>
  <polygon class="fil60" points="33,71 0,38 0,38 34,71 "/>
  <polygon class="fil60" points="33,71 0,39 0,38 33,71 "/>
  <polygon class="fil61" points="32,71 0,39 0,39 33,71 "/>
  <path class="fil61" d="M32 71l-32 -31 0 -1 32 32c0,0 0,0 0,0z"/>
  <polygon class="fil61" points="31,71 0,40 0,40 32,71 "/>
  <polygon class="fil61" points="31,71 0,41 0,40 31,71 "/>
  <polygon class="fil62" points="30,71 0,41 0,41 31,71 "/>
  <polygon class="fil62" points="30,71 0,42 0,41 30,71 "/>
  <polygon class="fil62" points="29,71 1,42 0,42 30,71 "/>
  <polygon class="fil62" points="29,71 1,43 1,42 29,71 "/>
  <polygon class="fil62" points="28,71 1,43 1,43 29,71 "/>
  <path class="fil62" d="M28 71l-27 -28 0 0 27 28c0,0 0,0 0,0z"/>
  <polygon class="fil62" points="27,71 1,44 1,43 28,71 "/>
  <polygon class="fil62" points="27,70 1,45 1,44 27,71 "/>
  <path class="fil63" d="M26 70l-25 -25 0 0 26 25c0,0 0,0 -1,0z"/>
  <path class="fil63" d="M26 70l-25 -24c0,-1 0,-1 0,-1l25 25c0,0 0,0 0,0z"/>
  <polygon class="fil63" points="25,70 2,46 1,46 26,70 "/>
  <polygon class="fil63" points="25,70 2,47 2,46 25,70 "/>
  <path class="fil64" d="M24 70l-22 -23c0,0 0,0 0,0l23 23c0,0 -1,0 -1,0z"/>
  <polygon class="fil64" points="24,69 2,48 2,47 24,70 "/>
  <path class="fil64" d="M23 69l-21 -20 0 -1 22 21c-1,0 -1,0 -1,0z"/>
  <path class="fil64" d="M22 69l-19 -20c0,0 -1,0 -1,0l21 20c0,0 -1,0 -1,0z"/>
  <path class="fil64" d="M22 69l-19 -19c0,0 0,-1 0,-1l19 20c0,0 0,0 0,0z"/>
  <path class="fil64" d="M21 68l-18 -17c0,-1 0,-1 0,-1l19 19c-1,-1 -1,-1 -1,-1z"/>
  <path class="fil65" d="M20 68l-16 -17c-1,0 -1,0 -1,0l18 17c0,0 -1,0 -1,0z"/>
  <path class="fil65" d="M19 67l-15 -15c0,0 0,0 0,-1l16 17c0,0 0,0 -1,-1z"/>
  <path class="fil66" d="M18 67l-14 -14c0,0 0,-1 0,-1l15 15c0,0 0,0 -1,0z"/>
  <path class="fil66" d="M18 67l-13 -13c0,0 0,-1 -1,-1l14 14c0,0 0,0 0,0z"/>
  <path class="fil66" d="M17 66l-11 -11c-1,0 -1,-1 -1,-1l13 13c-1,-1 -1,-1 -1,-1z"/>
  <path class="fil66" d="M15 65l-9 -9c0,0 0,-1 0,-1l11 11c-1,0 -1,-1 -2,-1z"/>
  <path class="fil67" d="M14 64l-6 -6c-1,-1 -1,-1 -2,-2l9 9c0,0 -1,-1 -1,-1z"/>
  <path class="fil67" d="M8 58l6 6c-1,-1 -2,-2 -4,-3 -1,-1 -2,-2 -2,-3z"/>
  <path class="fil68" d="M55 23c-1,1 -2,1 -3,2 0,0 1,-2 1,-2 1,-1 2,-2 2,-2l0 -1 0 0c-2,1 -3,2 -5,2l0 0 -1 0c-1,-1 -1,-1 -2,-2 -1,0 -2,0 -4,0 -1,0 -2,0 -3,1 -1,0 -2,1 -3,2 0,1 -1,2 -1,3 0,1 0,2 0,3l0 0c-7,0 -12,-3 -16,-8 -1,0 -1,0 -1,0 -2,3 -1,8 2,10 0,0 0,1 1,1 -1,0 -2,0 -4,-1l0 0c0,0 0,1 0,1 1,3 3,6 5,7 1,0 1,0 1,0 0,0 -1,0 -3,0 0,0 0,0 0,0 1,4 4,5 6,6 1,0 1,0 1,0l0 0c0,1 -3,2 -4,2 -2,1 -5,1 -7,1 0,0 0,0 0,0l0 0c0,1 1,1 1,1 2,1 3,1 5,2 8,2 17,0 23,-6 4,-4 6,-11 6,-17 0,0 0,0 0,-1 2,-1 3,-2 3,-3 1,0 1,0 1,0l0 -1 -1 0z"/>
 </g>
</svg>
